
Dip1990


       Signs [2002] [Dual-Audio] [English+Hindi]_Dip1990
   

General
Complete name                    : Signs [2002] [Dual-Audio]
Format                           : Matroska
File size                        : 1.51 GiB
Duration                         : 1h 46mn
Overall bit rate                 : 2 031 Kbps
Encoded date                     : UTC 2010-11-20 12:35:42
Writing application              : mkvmerge v4.4.0 ('Die Wiederkehr') built on Oct 31 2010 21:52:48
Writing library                  : libebml v1.0.0 + libmatroska v1.0.0

Video
ID                               : 1
Format                           : AVC
Format/Info                      : Advanced Video Codec
Format profile                   : Main@L3.0
Format settings, CABAC           : Yes
Format settings, ReFrames        : 6 frames
Muxing mode                      : Header stripping
Codec ID                         : V_MPEG4/ISO/AVC
Duration                         : 1h 46mn
Bit rate                         : 1 812 Kbps
Width                            : 720 pixels
Height                           : 384 pixels
Display aspect ratio             : 1.851
Original display aspect ratio    : 16:9
Frame rate                       : 23.810 fps
Original frame rate              : 23.976 fps
Color space                      : YUV
Chroma subsampling               : 4:2:0
Bit depth                        : 8 bits
Scan type                        : Progressive
Bits/(Pixel*Frame)               : 0.275
Stream size                      : 1.32 GiB (87%)
Title                            : Signs
Writing library                  : x264 core 79 r1347 5ddd61b
Encoding settings                : cabac=1 / ref=6 / deblock=1:-3:-3 / analyse=0x1:0x111 / me=hex / subme=6 / psy=1 / psy_rd=1.0:0.2 / mixed_ref=1 / me_range=16 / chroma_me=1 / trellis=2 / 8x8dct=0 / cqm=0 / deadzone=21,11 / chroma_qp_offset=-3 / threads=3 / nr=0 / decimate=1 / mbaff=0 / constrained_intra=0 / bframes=6 / b_pyramid=0 / b_adapt=2 / b_bias=0 / direct=1 / wpredb=0 / wpredp=2 / keyint=240 / keyint_min=24 / scenecut=40 / rc_lookahead=40 / rc=2pass / mbtree=1 / bitrate=1812 / ratetol=1.0 / qcomp=0.60 / qpmin=10 / qpmax=51 / qpstep=4 / cplxblur=20.0 / qblur=0.5 / ip_ratio=1.40 / aq=1:1.00
Language                         : English
Color primaries                  : BT.709-5, BT.1361, IEC 61966-2-4, SMPTE RP177
Transfer characteristics         : BT.709-5, BT.1361
Matrix coefficients              : BT.709-5, BT.1361, IEC 61966-2-4 709, SMPTE RP177

Audio #1
ID                               : 2
Format                           : MPEG Audio
Format version                   : Version 1
Format profile                   : Layer 3
Mode                             : Joint stereo
Mode extension                   : MS Stereo
Muxing mode                      : Header stripping
Codec ID                         : A_MPEG/L3
Codec ID/Hint                    : MP3
Duration                         : 1h 46mn
Bit rate mode                    : Variable
Bit rate                         : 65.3 Kbps
Minimum bit rate                 : 32.0 Kbps
Channel(s)                       : 2 channels
Sampling rate                    : 48.0 KHz
Stream size                      : 49.7 MiB (3%)
Title                            : Signs - English
Writing library                  : LAME3.98r
Encoding settings                : -m j -V 6 -q 3 -lowpass 15.6 --vbr-old -b 32
Language                         : English

Audio #2
ID                               : 3
Format                           : MPEG Audio
Format version                   : Version 1
Format profile                   : Layer 3
Mode                             : Joint stereo
Mode extension                   : MS Stereo
Muxing mode                      : Header stripping
Codec ID                         : A_MPEG/L3
Codec ID/Hint                    : MP3
Duration                         : 1h 46mn
Bit rate mode                    : Variable
Bit rate                         : 151 Kbps
Minimum bit rate                 : 32.0 Kbps
Channel(s)                       : 2 channels
Sampling rate                    : 48.0 KHz
Stream size                      : 115 MiB (7%)
Title                            : Signs - Hindi
Writing library                  : LAME3.98r
Encoding settings                : -m j -V 0 -q 3 -lowpass 19.5 --vbr-old -b 32
Language                         : Hindi

Screens: 
http://img217.imageshack.us/img217/8590/vlcsnap2010120213h31m46.png 
http://img262.imageshack.us/img262/7461/vlcsnap2010120213h32m38.png 
http://img638.imageshack.us/img638/9805/vlcsnap2010120213h36m38.png 
http://img137.imageshack.us/img137/9568/vlcsnap2010120213h37m02.png 
http://img689.imageshack.us/img689/5396/vlcsnap2010120213h39m02.png 
http://img411.imageshack.us/img411/7287/vlcsnap2010120213h43m51.png 
http://img25.imageshack.us/img25/7099/vlcsnap2010120213h44m59.png 
http://img440.imageshack.us/img440/9951/vlcsnap2010120213h45m20.png

Sample:
